# xmcd
#
# Track frame offsets: 
#        150
#        14839
#        34554
#        46116
#        65624
#        83953
#        100768
#        128977
#        142725
#        158646
#        173449
#        185764
#
# Disc length: 2677 seconds
#
# Revision: 3
# Processed by: cddbd v1.5.2PL0 Copyright (c) Steve Scherf et al.
# Submitted via: ExactAudioCopy v0.99pb5
#
DISCID=950a730c
DTITLE=Si Cranstoun - Dancehalls And Supper Clubs
DYEAR=2012
DGENRE=R&B
TTITLE0=Coupe De Ville
TTITLE1=Run Free
TTITLE2=Italian Eyes
TTITLE3=Daddy's Gotcha
TTITLE4=Tweet On Twitter
TTITLE5=Ella Hula Hula
TTITLE6=Nighttime
TTITLE7=Bella Principessa
TTITLE8=Rise and Shine
TTITLE9=Moon and Stars
TTITLE10=Dynamo [Big Band Cut]
TTITLE11=Lonesome Heart Bandit [Heavy Duty Mix]
EXTD=
EXTT0=
EXTT1=
EXTT2=
EXTT3=
EXTT4=
EXTT5=
EXTT6=
EXTT7=
EXTT8=
EXTT9=
EXTT10=
EXTT11=
PLAYORDER=
